<?xml version="1.0" standalone="no"?>
<!DOCTYPE svg PUBLIC "-//W3C//DTD SVG 20010904//EN"
 "http://www.w3.org/TR/2001/REC-SVG-20010904/DTD/svg10.dtd">
<svg version="1.0" xmlns="http://www.w3.org/2000/svg"
 width="700.000000pt" height="700.000000pt" viewBox="0 0 700.000000 700.000000"
 preserveAspectRatio="xMidYMid meet">
<metadata>
Created by potrace 1.14, written by Peter Selinger 2001-2017
</metadata>
<g transform="translate(0.000000,700.000000) scale(0.100000,-0.100000)"
fill="#000000" stroke="none">
<path d="M1940 5425 c-850 -650 -1546 -1189 -1548 -1198 -2 -8 261 -869 583
-1913 322 -1045 588 -1907 591 -1916 5 -17 106 -18 1934 -18 1828 0 1929 1
1934 18 3 9 269 871 591 1914 322 1044 585 1904 585 1912 0 8 -325 264 -722
567 -398 304 -1095 838 -1550 1186 -455 348 -833 633 -840 632 -7 0 -708 -533
-1558 -1184z m1950 -555 c133 -32 214 -77 319 -175 101 -95 148 -127 300 -206
114 -59 190 -120 215 -173 32 -68 14 -199 -35 -260 -57 -68 -150 -99 -442
-145 -142 -23 -211 -52 -240 -101 -63 -107 54 -258 368 -475 357 -246 562
-652 516 -1022 -13 -110 -57 -252 -103 -331 -210 -368 -681 -575 -1308 -575
-152 0 -203 4 -288 22 -439 93 -749 377 -947 866 -75 187 -168 575 -137 575 5
0 36 -33 68 -72 96 -120 176 -208 190 -208 7 0 50 18 95 40 79 38 129 50 129
31 0 -4 -27 -31 -60 -60 -49 -43 -60 -58 -60 -83 0 -29 1 -30 35 -25 19 3 71
22 115 42 101 46 132 43 76 -6 -91 -79 -107 -98 -104 -121 4 -33 37 -33 137
-3 46 14 87 23 89 20 3 -3 -27 -36 -67 -74 -41 -38 -72 -75 -69 -82 9 -34 223
-121 393 -160 127 -29 403 -37 498 -15 125 29 210 85 246 161 35 74 29 80 -39
43 l-59 -33 -64 70 -64 69 37 81 c21 44 45 81 53 83 9 2 49 -6 88 -17 l72 -20
-6 38 c-9 72 -127 291 -156 291 -5 0 -32 -44 -59 -97 l-49 -98 -44 1 c-29 0
-82 17 -159 50 l-115 50 -22 83 c-33 124 -33 185 -3 201 11 6 60 15 108 20
201 22 200 21 125 101 -65 70 -235 192 -248 177 -1 -2 -20 -42 -43 -90 -46
-100 -65 -115 -120 -97 -28 9 -268 123 -279 133 -1 1 -7 62 -13 136 -17 204
-15 206 173 185 62 -7 114 -11 116 -9 2 2 -1 10 -7 17 -6 7 -43 85 -82 173
-39 87 -75 163 -81 169 -6 6 -15 0 -26 -15 -10 -14 -31 -40 -48 -59 -40 -43
-54 -36 -126 60 l-53 71 23 68 c50 147 87 177 150 124 18 -14 33 -25 35 -23 1
2 14 50 29 106 85 333 293 530 613 582 38 6 80 13 94 15 54 10 239 -5 320 -24z"/>
<path d="M3953 4663 c-29 -6 -63 -49 -63 -80 0 -30 51 -83 79 -83 75 0 117 81
69 134 -25 27 -51 35 -85 29z"/>
</g>
</svg>
